<mxfile host="app.diagrams.net" modified="2024-07-04T12:26:29.270Z" agent="Mozilla/5.0 (Macintosh; Intel Mac OS X 10_15_7) AppleWebKit/537.36 (KHTML, like Gecko) Chrome/126.0.0.0 Safari/537.36" version="24.2.7" etag="-wF4YfKfC_bMSkXn8XAu" type="github">
  <diagram name="Page-1" id="6UGJVfT261rcZ0jNAXsm">
    <mxGraphModel>
      <root>
        <mxCell id="0" />
        <mxCell id="1" parent="0" />
      </root>
    </mxGraphModel>
  </diagram>
</mxfile>
